<?xml version="1.0" encoding="UTF-8"?>
<svg id="Layer_1" data-name="Layer 1" xmlns="http://www.w3.org/2000/svg" viewBox="0 0 97 75">
  <defs>
    <style>
      .cls-1 {
        fill: #e7fd7d;
      }
    </style>
  </defs>
  <path class="cls-1" d="M61.84,50.78c1.68,0,3.19-.41,4.53-1.22,1.35-.81,2.25-1.87,2.73-3.17l-3.47-1.45c-.38.66-.93,1.22-1.65,1.67-.72.45-1.43.67-2.14.67-.76,0-1.43-.15-2.04-.46-.6-.31-1.07-.73-1.42-1.26-.34-.53-.51-1.13-.51-1.79v-5.53c0-.64.17-1.22.51-1.75.34-.53.81-.94,1.4-1.24.59-.29,1.25-.44,1.98-.44s1.39.15,1.97.46c.58.31,1.04.72,1.38,1.24.34.52.51,1.1.51,1.74v1.06h-8.15v3.19h10.59c.52,0,.95-.17,1.29-.51.34-.34.51-.77.51-1.29v-1.74c0-1.46-.35-2.78-1.06-3.95s-1.68-2.08-2.9-2.74c-1.23-.66-2.61-.99-4.14-.99s-2.92.33-4.16.99c-1.24.66-2.21,1.58-2.92,2.74s-1.06,2.49-1.06,3.95v4.07c0,1.44.36,2.76,1.1,3.95.73,1.19,1.72,2.12,2.97,2.8,1.25.67,2.63,1.01,4.14,1.01"/>
  <path class="cls-1" d="M16.36,26.83v23.38h4.25v-22.35l-2.09,1.45h5.75c.85,0,1.61.2,2.29.58.67.39,1.2.93,1.59,1.61.39.69.58,1.45.58,2.3,0,.78-.19,1.48-.58,2.11-.39.63-.92,1.12-1.59,1.49-.67.37-1.43.55-2.29.55h-5.36v3.9h5.36c1.65,0,3.14-.35,4.46-1.05,1.32-.7,2.36-1.66,3.12-2.89.76-1.23,1.13-2.6,1.13-4.11s-.38-3.01-1.13-4.29c-.76-1.27-1.8-2.28-3.13-3.01-1.33-.73-2.82-1.1-4.45-1.1h-6.46c-.4,0-.74.14-1.03.41-.28.27-.42.61-.42,1.01"/>
  <path class="cls-1" d="M73.52,45l4.25,2.82v-21.1c0-.38-.12-.69-.37-.94-.25-.25-.56-.37-.94-.37h-6.62l.26,3.36h3.42v16.22Z"/>
  <path class="cls-1" d="M77.74,31.15l-4.37-2.6.12,20.87c0,.38.12.69.37.94s.56.37.94.37h6.62l-.26-3.36h-3.42v-16.22Z"/>
  <path class="cls-1" d="M43.13,50.78c1.68,0,3.19-.41,4.53-1.22,1.35-.81,2.25-1.87,2.73-3.17l-3.47-1.45c-.38.66-.93,1.22-1.65,1.67-.72.45-1.43.67-2.14.67-.76,0-1.43-.15-2.04-.46-.6-.31-1.08-.73-1.42-1.26-.34-.53-.51-1.13-.51-1.79v-5.53c0-.64.17-1.22.51-1.75.34-.53.81-.94,1.4-1.24.59-.29,1.25-.44,1.98-.44s1.39.15,1.97.46c.58.31,1.04.72,1.38,1.24.34.52.51,1.1.51,1.74v1.06h-8.15v3.19h10.59c.52,0,.95-.17,1.29-.51.34-.34.51-.77.51-1.29v-1.74c0-1.46-.35-2.78-1.06-3.95-.71-1.17-1.68-2.08-2.9-2.74-1.23-.66-2.61-.99-4.14-.99s-2.92.33-4.16.99c-1.24.66-2.21,1.58-2.92,2.74-.71,1.17-1.06,2.49-1.06,3.95v4.07c0,1.44.37,2.76,1.1,3.95.73,1.19,1.72,2.12,2.97,2.8,1.25.67,2.63,1.01,4.14,1.01"/>
</svg>